Coordinates
version=1
nRows=21
nColumns=12
inDegrees=yes

Units are S.I. units (second, meters, Newtons, ...)
Angles are in degrees

endheader
time	SC_y	SC_z	SC_x	AC_y	AC_z	AC_x	GH_y	GH_z	GH_yy	EL_x	PS_y
       0.0              -31.57          10.87          48.53          65.64         -4.831         -1.292          160.1         -12.07          28.75          9.714          45.78
   0.02684              -31.57          10.87          48.52          65.63         -4.829         -1.293          160.1         -12.06          28.72          9.728          45.79
   0.05368              -31.57          10.87          48.52          65.63         -4.827         -1.293          160.1         -12.06           28.7          9.744          45.81
   0.08051              -31.57          10.87          48.51          65.62         -4.825         -1.294          160.1         -12.05          28.68           9.76          45.83
    0.1074              -31.57          10.86          48.51          65.61         -4.823         -1.294          160.1         -12.04          28.65          9.777          45.84
    0.1342              -31.56          10.86           48.5          65.61          -4.82         -1.295          160.1         -12.04          28.63          9.795          45.86
     0.161              -31.56          10.86          48.49           65.6         -4.818         -1.296          160.1         -12.03           28.6          9.815          45.89
    0.1879              -31.56          10.86          48.49          65.59         -4.815         -1.296          160.1         -12.02          28.57          9.836          45.91
    0.2147              -31.56          10.86          48.48          65.58         -4.812         -1.297          160.1         -12.02          28.54          9.858          45.93
    0.2415              -31.56          10.86          48.47          65.58         -4.809         -1.298          160.1         -12.01           28.5          9.882          45.96
    0.2684              -31.56          10.86          48.46          65.57         -4.806         -1.299          160.1          -12.0          28.46          9.908          45.99
    0.2952              -31.55          10.86          48.45          65.56         -4.803           -1.3          160.1         -11.99          28.42          9.935          46.02
    0.3221              -31.55          10.86          48.44          65.55         -4.799           -1.3          160.1         -11.98          28.38          9.965          46.05
    0.3489              -31.55          10.86          48.43          65.53         -4.795         -1.302          160.1         -11.97          28.33          9.998          46.08
    0.3757              -31.55          10.86          48.42          65.52          -4.79         -1.303          160.1         -11.96          28.28          10.03          46.12
    0.4026              -31.54          10.86           48.4          65.51         -4.785         -1.304          160.1         -11.95          28.22          10.07          46.16
    0.4294              -31.54          10.86          48.39          65.49          -4.78         -1.305          160.1         -11.93          28.16          10.11          46.21
    0.4562              -31.54          10.86          48.37          65.48         -4.774         -1.307          160.1         -11.92           28.1          10.16          46.25
    0.4831              -31.53          10.86          48.36          65.46         -4.768         -1.308          160.1          -11.9          28.03          10.21          46.31
    0.5099              -31.53          10.85          48.34          65.44         -4.761          -1.31          160.0         -11.88          27.95          10.26          46.36
    0.5368              -31.53          10.85          48.32          65.42         -4.754         -1.312          160.0         -11.86          27.86          10.32          46.43
